<svg xmlns="http://www.w3.org/2000/svg" viewBox="0 0 200 200">
  <defs>
    <linearGradient id="palmBg" x1="0%" y1="0%" x2="0%" y2="100%">
      <stop offset="0%" style="stop-color:#81C784"/>
      <stop offset="100%" style="stop-color:#4CAF50"/>
    </linearGradient>
  </defs>
  <rect width="200" height="200" fill="url(#palmBg)"/>
  <!-- Palm trunk -->
  <path d="M95 200 L95 100 Q95 90 100 85 Q105 90 105 100 L105 200" fill="#8D6E63"/>
  <!-- Palm fronds -->
  <g fill="#2E7D32" stroke="#1B5E20" stroke-width="1">
    <path d="M100 85 Q60 60 30 80 Q70 70 100 85"/>
    <path d="M100 85 Q140 60 170 80 Q130 70 100 85"/>
    <path d="M100 85 Q50 40 25 50 Q60 50 100 85"/>
    <path d="M100 85 Q150 40 175 50 Q140 50 100 85"/>
    <path d="M100 85 Q100 30 90 20 Q100 40 100 85"/>
    <path d="M100 85 Q100 30 110 20 Q100 40 100 85"/>
  </g>
  <!-- Coconuts -->
  <g fill="#5D4037">
    <circle cx="92" cy="95" r="8"/>
    <circle cx="108" cy="95" r="8"/>
    <circle cx="100" cy="105" r="8"/>
  </g>
  <!-- Text -->
  <text x="100" y="190" text-anchor="middle" fill="white" font-family="Arial" font-size="14" font-weight="bold">Coconut</text>
</svg>